/* XPM */
static char * logo_xpm[] = {
"60 100 382 2",
"  	c None",
". 	c #FFFF00",
"+ 	c #A800A8",
"@ 	c #880088",
"# 	c #F9F900",
"$ 	c #FCFC00",
"% 	c #8A8A00",
"& 	c #EDED00",
"* 	c #FDFA00",
"= 	c #A5A500",
"- 	c #FEFE00",
"; 	c #DDDD00",
"> 	c #FBFB00",
", 	c #CACA00",
"' 	c #920092",
") 	c #F0F000",
"! 	c #8B008B",
"~ 	c #970097",
"{ 	c #D4D400",
"] 	c #B200B2",
"^ 	c #810081",
"/ 	c #A200A2",
"( 	c #E5E500",
"_ 	c #E600E6",
": 	c #8C008C",
"< 	c #EF00EF",
"[ 	c #F4F400",
"} 	c #CA00CA",
"| 	c #C100C1",
"1 	c #F700F7",
"2 	c #ADAD00",
"3 	c #E200E2",
"4 	c #D600D6",
"5 	c #980098",
"6 	c #F800F8",
"7 	c #960096",
"8 	c #EAEA00",
"9 	c #FDC03C",
"0 	c #FDFD00",
"a 	c #D000D0",
"b 	c #9F009F",
"c 	c #F8F800",
"d 	c #8D008D",
"e 	c #F400F4",
"f 	c #CE00CE",
"g 	c #FEFB02",
"h 	c #B600B6",
"i 	c #BC00BC",
"j 	c #AE00AE",
"k 	c #B5B500",
"l 	c #FCF705",
"m 	c #999900",
"n 	c #FCFC02",
"o 	c #F200F2",
"p 	c #E1E100",
"q 	c #ECEC00",
"r 	c #F6F607",
"s 	c #E9E900",
"t 	c #D1D100",
"u 	c #A000A0",
"v 	c #910091",
"w 	c #E0E000",
"x 	c #EBEB0A",
"y 	c #E6E600",
"z 	c #860086",
"A 	c #D0D000",
"B 	c #F7F707",
"C 	c #F500F5",
"D 	c #EB00EB",
"E 	c #DEDE00",
"F 	c #F7F700",
"G 	c #A700A7",
"H 	c #F1F101",
"I 	c #9B009B",
"J 	c #F2F200",
"K 	c #F801F6",
"L 	c #D2C809",
"M 	c #9A9A00",
"N 	c #FEFD01",
"O 	c #D7D700",
"P 	c #B4B400",
"Q 	c #C4C400",
"R 	c #FCF902",
"S 	c #FDF804",
"T 	c #E000E0",
"U 	c #FCFC01",
"V 	c #DCDC20",
"W 	c #ECEC12",
"X 	c #F5F508",
"Y 	c #979766",
"Z 	c #999964",
"` 	c #EDED11",
" .	c #FEFA00",
"..	c #FDFD01",
"+.	c #CCCC32",
"@.	c #3D3DBD",
"#.	c #888875",
"$.	c #F9F904",
"%.	c #FEF800",
"&.	c #F5F509",
"*.	c #7B7B67",
"=.	c #1D1DCB",
"-.	c #E1E11C",
";.	c #F5F500",
">.	c #4A4A7F",
",.	c #4B4BB2",
"'.	c #F6F600",
").	c #FEFD00",
"!.	c #FFFE00",
"~.	c #1F1FB9",
"{.	c #E0E01D",
"].	c #7D7D5D",
"^.	c #848479",
"/.	c #3C3CBD",
"(.	c #FBFB02",
"_.	c #7C7C68",
":.	c #CBCB31",
"<.	c #FFFD00",
"[.	c #EAEA10",
"}.	c #7F7F7E",
"|.	c #FEFC00",
"1.	c #FCFB00",
"2.	c #BBBB43",
"3.	c #FAF900",
"4.	c #E8E800",
"5.	c #E7E716",
"6.	c #ECEC11",
"7.	c #FAFA00",
"8.	c #FAFA04",
"9.	c #F000F0",
"0.	c #B900B9",
"a.	c #890089",
"b.	c #E100E1",
"c.	c #F100F1",
"d.	c #DBDB00",
"e.	c #727200",
"f.	c #F1F109",
"g.	c #F1F105",
"h.	c #F3F208",
"i.	c #AB00AB",
"j.	c #F8F704",
"k.	c #CFCF14",
"l.	c #F4F403",
"m.	c #F1F00A",
"n.	c #DCD525",
"o.	c #9C9C00",
"p.	c #F0F004",
"q.	c #D8D813",
"r.	c #F9F901",
"s.	c #DAD02A",
"t.	c #FAF806",
"u.	c #F92BCD",
"v.	c #A9A900",
"w.	c #DCDC17",
"x.	c #B8B822",
"y.	c #FBFA04",
"z.	c #F6F10D",
"A.	c #FCF905",
"B.	c #BBBB21",
"C.	c #F3F209",
"D.	c #F8F607",
"E.	c #F4EB13",
"F.	c #F9F10D",
"G.	c #F5E717",
"H.	c #F3F30A",
"I.	c #FEF200",
"J.	c #B6B61F",
"K.	c #C2C21F",
"L.	c #F5F506",
"M.	c #F7F409",
"N.	c #F2E717",
"O.	c #F9EC12",
"P.	c #FCF608",
"Q.	c #FBF20C",
"R.	c #FBF407",
"S.	c #5B554B",
"T.	c #C7C71C",
"U.	c #D0D018",
"V.	c #FAF903",
"W.	c #F6F30B",
"X.	c #F2E41A",
"Y.	c #FEFB03",
"Z.	c #FBF10D",
"`.	c #FDE200",
" +	c #897667",
".+	c #606051",
"++	c #E9E90A",
"@+	c #D6D41C",
"#+	c #FDFC02",
"$+	c #FDF707",
"%+	c #FDF608",
"&+	c #FCF40A",
"*+	c #3E268F",
"=+	c #8A8A3C",
"-+	c #8F8F3D",
";+	c #DFDE13",
">+	c #FCF509",
",+	c #FDF806",
"'+	c #FEFC02",
")+	c #FDFA04",
"!+	c #3C0294",
"~+	c #BFBF20",
"{+	c #EAE90A",
"]+	c #F9F806",
"^+	c #FCF806",
"/+	c #FCF30B",
"(+	c #981BB8",
"_+	c #E2E210",
":+	c #F4F303",
"<+	c #9407BA",
"[+	c #C5C512",
"}+	c #E5E503",
"|+	c #DDD624",
"1+	c #F8F805",
"2+	c #8900D6",
"3+	c #D6D616",
"4+	c #DEDE0D",
"5+	c #E4DF1B",
"6+	c #FDFB03",
"7+	c #D0D02B",
"8+	c #6C6C91",
"9+	c #5A0DF0",
"0+	c #413A5E",
"a+	c #9F9F2C",
"b+	c #EEEE07",
"c+	c #EFEE0E",
"d+	c #858571",
"e+	c #F4F409",
"f+	c #9640BE",
"g+	c #1B0B92",
"h+	c #37376A",
"i+	c #B0B02A",
"j+	c #CCC82C",
"k+	c #8B8B00",
"l+	c #E3E300",
"m+	c #C07B83",
"n+	c #9B33B6",
"o+	c #A9A923",
"p+	c #EBEB09",
"q+	c #E7E512",
"r+	c #F5EE10",
"s+	c #E8CF2F",
"t+	c #AF16D5",
"u+	c #C9C918",
"v+	c #FBF905",
"w+	c #5454AA",
"x+	c #8D8D71",
"y+	c #8E8E71",
"z+	c #5555AA",
"A+	c #C7C738",
"B+	c #4848B6",
"C+	c #4444BA",
"D+	c #4545B9",
"E+	c #4C4CB2",
"F+	c #3E3EC0",
"G+	c #C4C43A",
"H+	c #750AEA",
"I+	c #F2F202",
"J+	c #E9E11C",
"K+	c #0000FF",
"L+	c #AAAA55",
"M+	c #8F8F6F",
"N+	c #711FDE",
"O+	c #221E6E",
"P+	c #CDCD16",
"Q+	c #F7F508",
"R+	c #A9A856",
"S+	c #A9A955",
"T+	c #3939C6",
"U+	c #72728D",
"V+	c #1D1DE2",
"W+	c #A0A05E",
"X+	c #3535C9",
"Y+	c #4E4EB0",
"Z+	c #A1A15D",
"`+	c #E1E11D",
" @	c #C36599",
".@	c #410E96",
"+@	c #CBCB16",
"@@	c #E1DD1C",
"#@	c #F9ED11",
"$@	c #E2E21C",
"%@	c #A6A658",
"&@	c #1414EA",
"*@	c #D8D826",
"=@	c #EFC539",
"-@	c #9408A7",
";@	c #CDCD0F",
">@	c #DEDE10",
",@	c #D4D121",
"'@	c #FBF707",
")@	c #E3E31C",
"!@	c #81817D",
"~@	c #FEF905",
"{@	c #8005E1",
"]@	c #CFCC13",
"^@	c #D6D613",
"/@	c #F8F802",
"(@	c #F1E915",
"_@	c #B0B04E",
":@	c #1A1AE4",
"<@	c #8028D6",
"[@	c #BFBF1F",
"}@	c #EEEE06",
"|@	c #E1D724",
"1@	c #1B1BE3",
"2@	c #868678",
"3@	c #D7827C",
"4@	c #560A99",
"5@	c #B2B223",
"6@	c #FBFB03",
"7@	c #1919E5",
"8@	c #F8EF0F",
"9@	c #930ACA",
"0@	c #EAEA04",
"a@	c #F7F705",
"b@	c #F6EB13",
"c@	c #BEBE40",
"d@	c #A8A856",
"e@	c #D8D817",
"f@	c #EBE01E",
"g@	c #9D5BA3",
"h@	c #62259C",
"i@	c #404067",
"j@	c #A1A130",
"k@	c #FDF905",
"l@	c #F5E519",
"m@	c #AA18E3",
"n@	c #A7A72A",
"o@	c #D9D71E",
"p@	c #FBF509",
"q@	c #6E0CF1",
"r@	c #9E9249",
"s@	c #C8C816",
"t@	c #4444B6",
"u@	c #5251AD",
"v@	c #3636C8",
"w@	c #4F4FAF",
"x@	c #4646B8",
"y@	c #4A4AB4",
"z@	c #4B4BB3",
"A@	c #898975",
"B@	c #996599",
"C@	c #63199E",
"D@	c #D8D80E",
"E@	c #8900C1",
"F@	c #5C5C89",
"G@	c #89886F",
"H@	c #A69F5F",
"I@	c #8B8B73",
"J@	c #A3A35B",
"K@	c #9F9F5F",
"L@	c #989866",
"M@	c #852FCE",
"N@	c #0E0C80",
"O@	c #C1C11E",
"P@	c #EBEB06",
"Q@	c #F6F20C",
"R@	c #D6AD51",
"S@	c #AE1DC9",
"T@	c #8A8A40",
"U@	c #D1CD2A",
"V@	c #6203F8",
"W@	c #D5D515",
"X@	c #F2F204",
"Y@	c #FAF707",
"Z@	c #B6718D",
"`@	c #9231B0",
" #	c #767643",
".#	c #AEAE2B",
"+#	c #E2DC1E",
"@#	c #FEFA04",
"##	c #740AEB",
"$#	c #F2E519",
"%#	c #B55CA2",
"&#	c #461097",
"*#	c #E5E50C",
"=#	c #F7F607",
"-#	c #8603D5",
";#	c #D3D313",
">#	c #F0EF08",
",#	c #FBF806",
". . . . . . . . . . . .                                     . . . . . . . . . . . . . . . . .                   . . . . ",
". . . . . . . . . . .                         +             . . . . . . . . . . . . . . . . . .                   . . . ",
". . . . . . . . . . .                         @           # . . . . . . . . . . . . . . . . . . . .                   . ",
". . . $ . . . . . .                                     % & . . . . . . . . . . . . . . . . . . . . .                   ",
". . * . . . . . . .                                     = # . . . . . . . . . . . . . . . . . . . . . .                 ",
". - $ . . . . . . ;                                       ; . . . . . . . . . . . . . . . . . . . . . . .               ",
". > . . . . . . .                                         , . . . . . . . . . . . . . . . . . . . . . . . .             ",
". - . . . . . . .                               '           ) . . . . . . . . . . . . . . . . . . . . . . . .           ",
"- . . . . . . .         !                   ~   '           { . . . . . . . . . . . . . . . . . . . . . . . . .         ",
"- . . . . . . .           ]                 ^     /           ( . . . . . . . . . . . . . . . . . . . . . . . . .       ",
". . . . . . . .   _       : <                                   [ . . . . . . . . . . . . . . . . . . . . . . . . .     ",
". . . . . . .   }           | 1                                 2 . . . . . . . . . . . . . . . . . . . . . . . . . .   ",
". . . . . . .                 3 4                                 { . . . . . . . . . . . . . . . . . . . . . . . . . . ",
". . . . . . .                 5 6 7                                 8 . . . . . . . . . . . . . . . . . . . . . . . . . ",
". . . . . . 9   0 &             a 6                         b         c . . . . . . . . . . . . . . . . . . . . . . . . ",
". . . . . .   . . .             d e                           f         . . . . . . . . . . . . . . . . . . . . . . . . ",
". . . . . g   . . 0               h i                           j       k . . . . . . . . . . . . . . . . . . . . . . . ",
". . . . . l m . . n                 o                                     p . . . . . . . . . . . . . . . . . . . . . . ",
". . . . .   q . . r                 h                                       . . . . . . . . . . . . . . . . . . . . . . ",
". . . . .   . . . . ,                                                         . . . . . . . . . . . . . . . . . . . . . ",
". . . . .   . . . . (                                                   '     s . . . . . . . . . . . . . . . . . . . . ",
". . . .     . . . . > t             u                                     v     . . . . . . . . . . . . . . . . . . . . ",
". . . .     w . . . . $ x y .                                             z     A . . . . . . . . . . . . . . . . . . . ",
". . .         0 . . . . B 0 0     C                                         j     . . . . . . . . . . . . . . . . . . . ",
". . .           . . . . . . .     D                                               E . . . . . . . . . . . . . . . . . . ",
". .             . . . . . . .   b       F . . . . . . .                       G     . . . . . . . . . . . . . . . . . . ",
". .               . . . . . H   I   . . . . . . . . . . . .                         J . . . . . . . . . . . . . . . . . ",
".                 F . . . .   K L . . . . . . . . . . . . . . .                 z     . . . . . . . . . . . . . . . . . ",
".                   . . . M   N . . . . . . . . . . . . . . . . . .                   . . . . . . . . . . . . . . . . . ",
".       0 - - -     O . P   . . . . . . . . . . . . . . . . . . . . .                 Q . . . . . . . . . . . . . . . . ",
"0     . . . . -           R . . . . . . . . . . . . . . . . . . . . . .                 . . . . . . . . . . . . . . . . ",
". . . . . . . -           S . . . . . . . . . . . . . . . . . . . . . .                 . . . . . . . . . . . . . . . . ",
". . . . . . . .         . . . . . . . . . . . . . . . . . . . . . . . . .                 . . . . . . . . . . . . . . . ",
". . . . . . . -         . . . . . . . . . . . . . . . . . . . . . . . . .                 . . . . . . . . . . . . . . . ",
". . . . . . . .         . . . . . . . . . . . . . . . . . . . . . . . . . .               . . . . . . . . . . . . . . . ",
". . - . . . . .         . . . . . . . . . . . . . . . . . . . . . . . . . .           T   . . . . . . . . . . . . . . . ",
". - U - . . . .         . . . . . . . . . . . . . . . . . . . . . . . . . .               0 . . . . . . . . . . . . . . ",
". r V W . . . . -     . . . . . . . . . . . . . $ - . . . . . . . . . . . . .               . . . . . . . . . . . . . . ",
". X Y Z ` . . . .     . . . . . . . . . . . - 0  .- . . . . . . . . . . . . .               . . . . . . . . . . . . . . ",
". ..+.@.#.$.. . .     . . . . . . . . . . - - F %.- . . . . . . . . . . . . .               . . . . . . . . . . . . . . ",
". - &.*.=.-.. . .     . . . . . . . . . . - ;.;.%.. . . . . . . . . . . . . .               . . . . . . . . . . . . . . ",
". . . . >.,.. . .     . . . . . . . . . . - '.$ ).!.. . . . . . . . . . . . .               . . . . . . . . . . . . . . ",
". . . . F ~.{.. .     . . . . . . . . . - - 0 . - . . . . . . . . . . . . . .               . . . . . . . . . . .   . . ",
". . . . . ].^.. . .   . . . . . . . . . - - - . - . . . . . . . . . . . . . . )             . . . . . . . . .         . ",
". . . . . . /.(.. .   . . . . . . . . . . - - . . - . . . . . . . . . . . . . .             . . . . . . . . .           ",
". . . . . . _.:.. .   . . . . . . . . . . - . . . . - <.%.- - . . . . . . . . .             '.. . . . . . .             ",
". . . . . . [.}.. . ; - . . . . . . . . . - . . . . - |.%.1.0 . . . . . . . . .             8 . . . . . . .       . .   ",
". . . . . . . 2.- . . . . . . . . . . . . . . . . . - ).3.- - . . . . . . . . .             4.. . . . . . .     . . . . ",
". . . . . . . W 5.. . . . . . . . . . . . . . . . . . # c . . . . . . . . . . .             8 . . . . . . .   . . . . . ",
". . . . . . . n 6.. . . . . . . . . . . . . . . . . - 7.> . . . . . . . . . . .             [ . . . . . .     . . . . . ",
". . . . . . . . 8.- . . . . . . . . . . . . . . . . - # - . . . . . . . . . . .             $ . . . . . .   . . . . . . ",
". . . . . . . . - - . . . . . . . . . . . . . . . . - 0 - . . . . . . . . . . .             0 . . . . .     . . . . . . ",
". . . . . . . . . . . . . . . . . . . . . . . . . . - - - - . . . . . . . . . .             - . . . . .   . . . . . . . ",
". . . . . . . . . . . . . . . . . . . . . . . . . . - - - - . . . . . . . . . .             . . . . .     . . . . . . . ",
". . . . . . . . . - . . . . . . . . . . . . . . . . - - - - . . . . . . . . . .         9.  . . . . . # . . . . . . . . ",
". . . . . . . . . . . . . . . . . . . . . . . . . . . - - . . . . . . . . . . .         0.  . . . . .   . . . . . . . . ",
". . . . . . . . . . . . . . . . . . . . . . . . . . . . - . . . . . . . . . . )       a.b.  . . . . .   . . . . . . . . ",
". . . . . . . . . . . . . . . . . . . . . . . . . . . . . . . . . . . . . . .     D c.    d.. . . .   . . . . . . . . . ",
". . . . . . . . . . . . . . . . . . . . . . . . . . . . . . . . . . . . . . .       0.    - . . . .   . . . . . . . . . ",
". . . . . . . . . . . . . . . . . . . . . . . . . . . . . . . . . . . . . . .             . . . .   . . . . . . . . . . ",
". . . . . . . . . . . . . . . . . . . . . . . . . . . . . . . . . . . . . . .           e.. . . .   . . . . . . . . . . ",
". . - - . . . . . . . . . . . . . . . . . . . . . . . . . . . . . . . . . .   ~         - . . .   . . . . . . . . . . . ",
"..f.g.h.. . . . . . . . . . . . . . . . . . . . . . . . . . . . . . . . . . i.          . . . .   . . . . . . . . . . . ",
"j.k.l.m.n.. . . . . . . . . . . . . . . . . . . . . . . . . . . . . . . . .   Q       o.. . . . . . . . . . . . . . . . ",
"p.q.r.m.s.t.. . . . . . . . . . . . . . . . . . . . . . . . . . . . . . . u.l.v.      . . . . . . . . . . . . . . . . . ",
"  w.x.m.y.z.A.. . . . . . . . . . . . . . . . . . . . . . . . . . . . . .   .       '.. . . . . . . . . . . . . . . . . ",
"    B.C.D.E.F.G.. . . . . . . . . . . . . . . . . . . . . . . . . . . .   . H.      I.. . . . . . . . . . . . . . . . . ",
"  J.K.L.M.N.O.P.Q.. . . . . . . . . . . . . . . . . . . . . . . . . . R.F .       . . . . . . . . . . . . . . . . . . . ",
"S.T.U.V.W.X.Y.Z.Y.N . . . . . . . . . . . . . . . . . . . . . . . . .   . .     . `.. . . . . . . . . . . . . . . . . . ",
" +.+++@+W.#+$+Y.%+&+. . . . . . . . . . . . . . . . . . . . . . . .   . .     . ).. . . . . . . . . . . . . . . . . . . ",
"*+=+-+;+M.A.>+,+'+Y.)+. . . . . . . . . . . . . . . . . . . . .       $   . . . . . . . . . . . . . . . . . . . . . . . ",
"!+  ~+{+]+^+/+- Y.- N %+. . . . . . . . . . . . . 0                   . . . . . . . . . . . . . . . . . . . . . . . . . ",
"(+  _+:+).^+- N - N - Y.Y.. . . . . . . - . . . . .               . . . . . . . . . . . . . . . . . . . . . . . . . . . ",
"<+  [+}+|+^+N '+- - - - N N . . . . . . . ..B 1+. . . . . . - . . . . . . . . . . . . . . . . .   . . . . . . .   . . . ",
"2+  3+4+5+6+'+'+- - - - - - - . . . . . . . . 7+8+(.. . . . . . . . . . . . . . . . . . . . . . . . . . . . . . . . . . ",
"9+0+a+b+c+- '+- - - - - - - - - . . . . . . . .     d+e+. . . . . - 0 . . . . . . . . . . . . . . . . . . . . . . . . . ",
"f+g+h+i+j+N.'+- - - - - - - - - - . . . . . . . .             k+l+. . . . . . . . . . . . . . . . . . . . . .   . . . . ",
"m+n+o+p+q+r+N - - - - - - - - - - - . . . . . . . . . $ > y A . . . . . . . . . . . . . . . . . . . . . . . . . . . . . ",
"s+t+  u+0 v+/+w+w+w+w+w+w+- x+w+w+w+w+y+. y+z+z+z+z+z+z+z+z+z+z+z+A+. y+z+z+z+z+y+. . B+C+D+E+F+G+. . . . . . . . . . . ",
"Y.H+    I+J+>+K+K+K+K+K+K+. z+K+K+K+K+w+- z+K+K+K+K+K+K+K+K+K+K+K+L+. z+K+K+K+K+z+. . K+K+K+K+K+M+. . . . . . . . . . . ",
"- N+O+  P+Q+)+R+S+K+K+L+L+. A+z+K+K+y+A+. A+L+T+K+U+L+L+L+L+L+T+K+L+. A+L+V+K+z+A+. . W+X+K+Y+Z+`+. . . . . . . . . . . ",
".  @.@+@r.@@#@'+- K+K+. . . y+K+V+A+. . . . . z+K+L+. . . . . z+K+L+. . . A+K+V+$@. . %@K+&@*@. . . . . . . . . . . . . ",
". =@-@;@>@,@'@N - K+K+. . z+K+V+)@. . . . . . z+K+L+. . y+z+A+z+K+L+. . . . z+K+w+. . X+K+!@. . . . . . . . . . . . . . ",
". ~@{@]@^@/@(@,+- K+K+. z+K+V+)@. . . . . . . z+K+L+. . z+K+L+y+z+A+. . . . )@K+K+_@G+K+:@. . . . . . . . . . . . . . . ",
". . <@  [@}@|@'+- K+K+z+K+K+)@. . . . . . . . z+K+K+K+K+K+K+L+. . . . . . . . x+K+1@X+K+2@. . . . . . . . . . . . . . . ",
". . 3@4@5@q.6@>+- K+K+K+K+K+V+)@. . . . . . . z+K+K+K+K+K+K+L+. . . . . . . . . 7@K+K+X+. . . . . . . . . . . . . . . . ",
". . 8@9@0@q.a@b@- K+K+V+L+V+K+T+. . . . . . . z+K+L+. . z+K+L+. . . . . . . . . c@K+K+d@. . . . . . . . . . . . . . . . ",
". . - 9+  e@r.f@N K+K+)@. )@V+K+U+. . . . . . z+K+L+. . y+z+A+L+K+z+. . . . . . . K+K+. . . . . . . . . . . . . . . . . ",
". . . g@h@i@j@|+k@K+K+. . . A+K+K+)@. . . . . z+K+L+. . . . . L+K+z+. . . . . . . K+K+. . . . . . . . . . . . . . . . . ",
". . . l@m@  n@o@p@K+K+- . . . U+K+U+. . . . . z+K+L+. . . . . y+K+z+. . . . . . . K+K+. . . . . . . . . . . . . . . . . ",
". . . N q@r@s@t@u@K+K+w+z+. . )@K+K+z+z+A+y+z+V+K+T+z+z+z+z+z+V+K+z+. . . . v@w@x@K+K+y@z@A@. . . . . . . . . . . . . . ",
". . . . B@C@D@K+K+K+K+K+K+. . . U+K+K+K+L+z+K+K+K+K+K+K+K+K+K+K+K+z+. . . . K+K+K+K+K+K+K+C+. . . . . . . . . . . . . . ",
". . . . Y.E@  F@G@H@S+S+L+. . . )@L+L+L+)@A+L+L+L+L+L+L+L+L+L+L+L+A+. . . . I@J@K@K@Z+%@L@G+. . . . . . . . . . . . . . ",
". . . . . M@N@O@P@Q@,+- - . . . . . . . . . . . . . . . . . . . . . . . . . . . . . . . . . . . .   . . . . . . . . . . ",
". . . . . R@S@  T@U@/+- - . . . . . . . . . . . . . . . . . . . . . . . . . . . . . . . . . . . . . . . . . . . . . . . ",
". . . . . '+V@  W@X@Y@Y.- - . . . . . . . . . . . . . . . . . . . . . . . . . . . .   . . . . . . . . . . . . . . . . . ",
". . . . . . Z@`@ #.#+#,+- - . . . . . . . . . . . . . . . . . . . . . . . . . . . . . . . . . . . . . . . . . . . . . . ",
". . . . . . @###    0 $#N - . . . . . . . . . . . . . . . . . . . . . . . . .   . . . . . . . . . . . . . . . . . . . . ",
". . . . . . . %#&#+@*#=#/+- - . . . . . . . . . . . . . . . . . . . . . . . . . . . . . . . . . . . . . . . . . . . . . ",
". . . . . . . Y.-#  ;#>#,#'+- . . . . . . . . . . . . . . . . . . . . . . . . . . . . . . . . . . . . . . . . . . . . . "};
