/* XPM */
static char * forward_xpm[] = {
"20 22 7 1",
" 	c None",
".	c #FFFFFF",
"+	c #CCFFFF",
"@	c #999999",
"#	c #666666",
"$	c #333333",
"%	c #000000",
"                    ",
"        $$ #        ",
"     $$$$$$@        ",
"   $$$$$$$ #        ",
"  $$$$$$$$$@        ",
" $$$$$$$$$ #        ",
"$$$$$$$$$$$@        ",
"% $$$$$$$$ #        ",
"%%  $$$$$$          ",
"%%%$@  $            ",
"%%%%%%$@      %     ",
"%%%%%%%%%$@   %%    ",
"%%%%%%%%%%%%%%%%%   ",
"$%%%%%%%%%%%%%%%%%  ",
"@%%%%%%%%%%%%%%%%%% ",
" #%%%%%%%%%%%%%%%%%%",
"  @$%%%%%%%%%%%%%%% ",
"     @$%%%%%%%%%%%  ",
"         @$%%%%%%   ",
"              %%    ",
"              %     ",
"                    "};
